<svg xmlns="http://www.w3.org/2000/svg" width="1280" height="720" viewBox="0 0 1280 720" role="img" aria-labelledby="title desc">
  <title id="title">VS Code AGENTS.md screenshot</title>
  <desc id="desc">A screenshot-like VS Code editor showing AGENTS.md navigation and source of truth.</desc>
  <rect width="1280" height="720" fill="#eef3f6"/>
  <rect x="48" y="36" width="1184" height="648" rx="18" fill="#ffffff" stroke="#d7e2e8"/>
  <rect x="48" y="36" width="1184" height="46" rx="18" fill="#1f2937"/>
  <text x="78" y="66" fill="#edf5f7" font-family="Consolas, 'Cascadia Mono', monospace" font-size="17">Visual Studio Code — AGENTS.md</text>

  <rect x="48" y="82" width="230" height="602" fill="#f3f6f8"/>
  <text x="78" y="124" fill="#526173" font-family="'Noto Sans TC', 'Microsoft JhengHei', sans-serif" font-size="16" font-weight="700">EXPLORER</text>
  <g font-family="Consolas, 'Cascadia Mono', monospace" font-size="16">
    <text x="78" y="168" fill="#172033">example-backend</text>
    <text x="96" y="204" fill="#116d78">AGENTS.md</text>
    <text x="96" y="236" fill="#526173">docs/</text>
    <text x="116" y="268" fill="#526173">analysis/</text>
    <text x="116" y="300" fill="#526173">spec/</text>
    <text x="116" y="332" fill="#526173">adr/</text>
    <text x="116" y="364" fill="#526173">infra/</text>
    <text x="96" y="396" fill="#526173">src/</text>
    <text x="96" y="428" fill="#526173">tests/</text>
  </g>

  <rect x="278" y="82" width="954" height="42" fill="#ffffff"/>
  <rect x="300" y="92" width="160" height="32" rx="8" fill="#e4f8fb" stroke="#8adce5"/>
  <text x="322" y="114" fill="#116d78" font-family="Consolas, 'Cascadia Mono', monospace" font-size="16">AGENTS.md</text>

  <rect x="300" y="148" width="894" height="480" rx="12" fill="#ffffff" stroke="#d7e2e8"/>
  <g font-family="'Noto Sans TC', 'Microsoft JhengHei', sans-serif">
    <text x="330" y="194" fill="#172033" font-size="28" font-weight="700">AGENTS.md — Example_BackEnd AI 導航指引</text>
    <text x="330" y="232" fill="#526173" font-size="18">&gt; GenAI Agent 理解專案的第一入口。處理任務前先讀完本文件。</text>

    <text x="330" y="286" fill="#116d78" font-size="22" font-weight="700">## 定錨資訊</text>
    <text x="354" y="324" fill="#172033" font-size="18">- Base Namespace：Example.Api.Admin、Example.Api.EndUser、Example.Service、Example.Test</text>
    <text x="354" y="356" fill="#172033" font-size="18">- Solution 結構：以 Example.sln 為唯一結構入口</text>
    <text x="354" y="388" fill="#172033" font-size="18">- 版本真相來源：global.json 與各專案 .csproj</text>

    <text x="330" y="446" fill="#116d78" font-size="22" font-weight="700">## GenAI 文件導航</text>
    <rect x="330" y="468" width="802" height="46" rx="8" fill="#f7f9fa" stroke="#d7e2e8"/>
    <text x="354" y="498" fill="#172033" font-size="17">了解系統全貌與風險區域 → docs/analysis/SA-001_system-overview.md</text>
    <rect x="330" y="522" width="802" height="46" rx="8" fill="#f7f9fa" stroke="#d7e2e8"/>
    <text x="354" y="552" fill="#172033" font-size="17">查詢 API、權限、RBAC → docs/spec/SPEC-001_api-auth-and-rbac.md</text>
    <rect x="330" y="576" width="802" height="32" rx="8" fill="#e4f8fb"/>
    <text x="354" y="598" fill="#116d78" font-size="16" font-weight="700">效果：Agent 不用猜資料在哪裡，先照地圖讀。</text>
  </g>
</svg>
